<svg width="512" height="512" viewBox="-8 -8 116 116" xmlns="http://www.w3.org/2000/svg" role="img" aria-label="beetkeeper"><path fill="#121114" fill-rule="evenodd" d="M98.50 50.00 L74.25 92.00 L25.75 92.00 L1.50 50.00 L25.75 8.00 L74.25 8.00 Z M59.60 50.00 L59.68 50.51 L59.74 51.02 L59.77 51.55 L59.77 52.08 L59.74 52.61 L59.68 53.14 L59.59 53.68 L59.47 54.22 L59.32 54.75 L59.15 55.28 L58.94 55.80 L58.70 56.32 L58.43 56.83 L58.13 57.32 L57.81 57.81 L57.45 58.28 L57.07 58.73 L56.66 59.17 L56.22 59.58 L55.76 59.98 L55.27 60.35 L54.76 60.70 L54.23 61.03 L53.68 61.32 L53.11 61.59 L52.52 61.83 L51.91 62.04 L51.28 62.22 L50.65 62.37 L50.00 62.48 L49.34 62.56 L48.68 62.61 L48.00 62.61 L47.32 62.59 L46.64 62.52 L45.96 62.42 L45.29 62.28 L44.61 62.11 L43.94 61.89 L43.28 61.64 L42.63 61.36 L41.99 61.03 L41.36 60.67 L40.75 60.28 L40.15 59.85 L39.58 59.38 L39.03 58.88 L38.50 58.35 L38.00 57.79 L37.53 57.20 L37.08 56.58 L36.67 55.94 L36.28 55.27 L35.94 54.57 L35.62 53.85 L35.35 53.11 L35.11 52.36 L34.91 51.59 L34.75 50.80 L34.63 50.00 L34.56 49.19 L34.53 48.37 L34.54 47.55 L34.59 46.73 L34.69 45.90 L34.84 45.07 L35.03 44.25 L35.26 43.44 L35.54 42.63 L35.86 41.84 L36.23 41.06 L36.64 40.29 L37.09 39.54 L37.58 38.82 L38.12 38.12 L38.69 37.44 L39.30 36.79 L39.95 36.17 L40.64 35.58 L41.36 35.03 L42.11 34.51 L42.89 34.03 L43.70 33.59 L44.54 33.19 L45.40 32.84 L46.29 32.53 L47.19 32.26 L48.11 32.04 L49.05 31.87 L50.00 31.75 L50.96 31.68 L51.93 31.66 L52.90 31.69 L53.87 31.78 L54.85 31.91 L55.82 32.10 L56.78 32.34 L57.73 32.63 L58.68 32.97 L59.60 33.36 L60.51 33.81 L61.40 34.30 L62.27 34.85 L63.11 35.44 L63.92 36.08 L64.70 36.76 L65.45 37.49 L66.16 38.26 L66.83 39.07 L67.47 39.92 L68.06 40.80 L68.60 41.72 L69.10 42.67 L69.55 43.65 L69.95 44.66 L70.29 45.69 L70.59 46.74 L70.82 47.81 L71.01 48.90 L71.13 50.00 L71.20 51.11 L71.21 52.23 L71.15 53.35 L71.04 54.47 L70.87 55.59 L70.64 56.71 L70.35 57.81 L70.01 58.91 L69.60 59.99 L69.13 61.05 L68.61 62.08 L68.03 63.10 L67.39 64.08 L66.70 65.04 L65.96 65.96 L65.17 66.85 L64.33 67.69 L63.44 68.49 L62.50 69.25 L61.53 69.96 L60.51 70.63 L59.45 71.23 L58.36 71.79 L57.24 72.29 L56.09 72.73 L54.91 73.11 L53.71 73.43 L52.49 73.69 L51.25 73.88 L50.00 74.01 L48.74 74.08 L47.47 74.07 L46.20 74.00 L44.93 73.86 L43.66 73.66 L42.40 73.39 L41.15 73.05 L39.92 72.64 L38.71 72.17 L37.51 71.63 L36.35 71.03 L35.21 70.36 L34.10 69.63 L33.03 68.84 L32.00 68.00 L31.01 67.10 L30.07 66.14 L29.17 65.13 L28.33 64.07 L27.54 62.97 L26.81 61.82 L26.13 60.63 L25.52 59.40 L24.97 58.13 L24.49 56.84 L24.07 55.51 L23.72 54.16 L23.44 52.79 L23.24 51.40 L23.10 50.00 L23.05 48.59 L23.06 47.17 L23.15 45.75 L23.32 44.33 L23.56 42.91 L23.87 41.51 L24.26 40.12 L24.73 38.75 L25.27 37.40 L25.88 36.07 L26.56 34.78 L27.31 33.51 L28.13 32.29 L29.01 31.10 L29.96 29.96 L30.97 28.87 L32.05 27.83 L33.17 26.84 L34.36 25.91 L35.59 25.04 L36.87 24.24 L38.20 23.50 L39.57 22.83 L40.98 22.23 L42.42 21.70 L43.89 21.25 L45.39 20.87 L46.91 20.58 L48.45 20.36 L50.00 20.22 L51.56 20.17 L53.13 20.19 L54.70 20.30 L56.27 20.50 L57.83 20.77 L59.38 21.13 L60.91 21.57 L62.42 22.09 L63.91 22.70 L65.37 23.38 L66.79 24.14 L68.18 24.98 L69.53 25.89 L70.83 26.87 L72.08 27.92 L73.27 29.05 L74.41 30.23 L75.49 31.48 L76.50 32.79 L77.45 34.15 L78.33 35.57 L79.13 37.03 L79.86 38.54 L80.51 40.09 L81.08 41.67 L81.57 43.29 L81.97 44.94 L82.29 46.61 L82.52 48.30 L82.66 50.00 L82.71 51.71 L82.67 53.43 L82.54 55.15 L82.32 56.87 L82.01 58.58 L81.61 60.27 L81.12 61.95 L80.54 63.60 L79.87 65.22 L79.12 66.81 L78.28 68.36 L77.36 69.88 L76.35 71.34 L75.27 72.75 L74.11 74.11 L72.88 75.41 L71.58 76.65 L70.21 77.82 L68.78 78.92 L67.29 79.95 L65.74 80.90 L64.14 81.77 L62.50 82.55 L60.81 83.26 L59.07 83.87 L57.31 84.39 L55.52 84.82 L53.70 85.16 L51.86 85.40 L50.00 85.54 L48.13 85.59 L46.26 85.54 L44.39 85.39 L42.53 85.14 L40.68 84.80 L38.84 84.35 L37.02 83.81 L35.23 83.17 L33.47 82.44 L31.75 81.61 L30.07 80.70 L32.90 76.33 L34.35 77.11 L35.83 77.81 L37.35 78.42 L38.88 78.96 L40.45 79.41 L42.02 79.77 L43.61 80.06 L45.21 80.25 L46.81 80.37 L48.41 80.40 L50.00 80.34 L51.58 80.21 L53.15 79.99 L54.70 79.68 L56.23 79.30 L57.73 78.85 L59.20 78.31 L60.63 77.70 L62.03 77.02 L63.38 76.27 L64.69 75.45 L65.95 74.56 L67.16 73.62 L68.31 72.61 L69.40 71.55 L70.44 70.44 L71.41 69.27 L72.31 68.07 L73.15 66.82 L73.92 65.53 L74.61 64.21 L75.24 62.86 L75.79 61.48 L76.26 60.08 L76.66 58.66 L76.99 57.23 L77.24 55.79 L77.41 54.34 L77.50 52.89 L77.52 51.44 L77.46 50.00 L77.33 48.57 L77.12 47.15 L76.84 45.75 L76.48 44.37 L76.06 43.02 L75.57 41.69 L75.01 40.40 L74.38 39.14 L73.70 37.93 L72.95 36.75 L72.14 35.62 L71.28 34.54 L70.37 33.50 L69.41 32.53 L68.40 31.60 L67.35 30.74 L66.25 29.93 L65.12 29.18 L63.96 28.50 L62.77 27.88 L61.55 27.33 L60.31 26.84 L59.05 26.43 L57.77 26.08 L56.49 25.80 L55.19 25.58 L53.89 25.44 L52.59 25.37 L51.29 25.36 L50.00 25.42 L48.72 25.55 L47.45 25.75 L46.20 26.01 L44.97 26.34 L43.76 26.72 L42.58 27.17 L41.43 27.68 L40.32 28.25 L39.23 28.87 L38.19 29.55 L37.19 30.27 L36.23 31.05 L35.32 31.87 L34.45 32.73 L33.64 33.64 L32.88 34.58 L32.17 35.56 L31.52 36.57 L30.92 37.61 L30.38 38.67 L29.90 39.76 L29.48 40.86 L29.12 41.98 L28.82 43.12 L28.58 44.26 L28.40 45.41 L28.29 46.56 L28.23 47.71 L28.24 48.86 L28.30 50.00 L28.43 51.13 L28.61 52.25 L28.86 53.35 L29.15 54.43 L29.51 55.49 L29.91 56.53 L30.37 57.53 L30.88 58.51 L31.44 59.46 L32.04 60.37 L32.69 61.24 L33.38 62.07 L34.11 62.87 L34.88 63.62 L35.68 64.32 L36.51 64.98 L37.37 65.59 L38.26 66.15 L39.18 66.66 L40.11 67.12 L41.07 67.53 L42.04 67.89 L43.02 68.19 L44.01 68.44 L45.01 68.64 L46.01 68.78 L47.01 68.87 L48.01 68.90 L49.01 68.88 L50.00 68.81 L50.98 68.69 L51.95 68.52 L52.90 68.30 L53.83 68.03 L54.74 67.71 L55.64 67.34 L56.50 66.94 L57.34 66.48 L58.15 65.99 L58.93 65.46 L59.67 64.89 L60.38 64.29 L61.05 63.65 L61.69 62.98 L62.28 62.28 L62.84 61.56 L63.35 60.81 L63.82 60.04 L64.25 59.25 L64.63 58.45 L64.96 57.62 L65.26 56.79 L65.50 55.95 L65.70 55.10 L65.85 54.25 L65.96 53.39 L66.02 52.54 L66.03 51.69 L66.00 50.84 L65.93 50.00 L65.81 49.17 L65.65 48.35 L65.45 47.55 L65.21 46.77 L64.92 46.00 L64.60 45.26 L64.24 44.53 L63.85 43.83 L63.42 43.16 L62.96 42.52 L62.47 41.90 L61.96 41.31 L61.41 40.76 L60.84 40.24 L60.25 39.75 L59.63 39.30 L59.00 38.89 L58.35 38.51 L57.68 38.17 L57.00 37.87 L56.32 37.60 L55.62 37.38 L54.92 37.19 L54.21 37.04 L53.50 36.93 L52.79 36.86 L52.09 36.83 L51.38 36.83 L50.69 36.87 L50.00 36.95 L49.32 37.07 L48.66 37.21 L48.00 37.40 L47.37 37.61 L46.75 37.86 L46.15 38.14 L45.57 38.45 L45.01 38.78 L44.47 39.14 L43.96 39.53 L43.47 39.94 L43.01 40.38 L42.57 40.83 L42.17 41.30 L41.79 41.79 L41.45 42.30 L41.13 42.82 L40.84 43.35 L40.59 43.89 L40.36 44.44 L40.17 44.99 L40.01 45.55 L39.88 46.12 L39.78 46.68 L39.72 47.24 L39.68 47.81 L39.68 48.36 L39.70 48.92 L39.75 49.46 L39.83 50.00 L39.94 50.53 L40.08 51.04 L40.24 51.55 L40.43 52.03 L40.65 52.51 L40.88 52.96 L41.14 53.40 L41.42 53.82 L41.71 54.22 L42.03 54.60 L42.36 54.96 L42.71 55.30 L43.07 55.61 L43.45 55.90 L43.83 56.17 L44.23 56.41 L44.63 56.63 L45.04 56.82 L45.46 56.99 L45.88 57.14 L46.30 57.26 L46.73 57.36 L47.15 57.43 L47.57 57.47 L47.99 57.50 L48.41 57.50 L48.82 57.48 L49.22 57.43 L49.61 57.37 L50.00 57.28 L50.38 57.18 L50.74 57.05 L51.09 56.91 L51.43 56.75 L51.76 56.57 L52.07 56.38 L52.37 56.17 L52.65 55.95 L52.91 55.72 L53.16 55.47 L53.39 55.22 L53.60 54.96 L53.80 54.69 L53.97 54.41 L54.13 54.13 L54.27 53.84 L54.39 53.56 L54.49 53.26 L54.58 52.97 L54.64 52.68 L54.69 52.39 L54.72 52.10 L54.74 51.82 L54.73 51.54 L54.71 51.26 L54.68 50.99 L54.63 50.73 L54.57 50.48 L54.49 50.24 L54.40 50.00 Z "/></svg>