<svg width="512" height="512" viewBox="-8 -8 116 116" xmlns="http://www.w3.org/2000/svg" role="img" aria-label="beetkeeper"><path fill="#FFFFFF" fill-rule="evenodd" d="M99.65 50.00 L74.83 93.00 L25.17 93.00 L0.35 50.00 L25.17 7.00 L74.83 7.00 Z M64.75 50.00 L64.85 50.78 L64.90 51.57 L64.91 52.36 L64.88 53.16 L64.81 53.97 L64.69 54.77 L64.53 55.58 L64.33 56.38 L64.08 57.17 L63.78 57.96 L63.45 58.73 L63.07 59.49 L62.64 60.24 L62.18 60.96 L61.67 61.67 L61.12 62.35 L60.53 63.00 L59.90 63.63 L59.24 64.23 L58.54 64.79 L57.81 65.33 L57.04 65.82 L56.25 66.28 L55.42 66.69 L54.57 67.06 L53.70 67.39 L52.80 67.68 L51.88 67.92 L50.95 68.11 L50.00 68.25 L49.04 68.34 L48.07 68.38 L47.09 68.37 L46.11 68.31 L45.13 68.19 L44.14 68.02 L43.17 67.80 L42.20 67.52 L41.24 67.20 L40.29 66.82 L39.36 66.38 L38.45 65.90 L37.56 65.36 L36.70 64.78 L35.86 64.14 L35.05 63.46 L34.28 62.73 L33.54 61.96 L32.84 61.15 L32.17 60.29 L31.56 59.40 L30.98 58.47 L30.46 57.50 L29.98 56.50 L29.55 55.48 L29.18 54.43 L28.86 53.35 L28.60 52.25 L28.40 51.13 L28.25 50.00 L28.16 48.86 L28.14 47.70 L28.17 46.54 L28.27 45.38 L28.43 44.22 L28.65 43.06 L28.93 41.91 L29.28 40.77 L29.69 39.65 L30.15 38.54 L30.68 37.46 L31.27 36.39 L31.92 35.36 L32.62 34.35 L33.38 33.38 L34.20 32.45 L35.06 31.56 L35.98 30.70 L36.95 29.90 L37.96 29.14 L39.01 28.44 L40.11 27.79 L41.24 27.19 L42.41 26.65 L43.62 26.17 L44.85 25.76 L46.10 25.41 L47.39 25.12 L48.68 24.90 L50.00 24.75 L51.33 24.67 L52.66 24.66 L54.00 24.72 L55.35 24.85 L56.69 25.05 L58.02 25.32 L59.34 25.66 L60.65 26.08 L61.94 26.57 L63.21 27.12 L64.45 27.75 L65.66 28.44 L66.84 29.20 L67.99 30.02 L69.09 30.91 L70.15 31.86 L71.16 32.86 L72.13 33.92 L73.04 35.04 L73.89 36.21 L74.68 37.42 L75.41 38.69 L76.08 39.99 L76.68 41.33 L77.21 42.71 L77.67 44.12 L78.05 45.56 L78.36 47.02 L78.59 48.50 L78.75 50.00 L78.83 51.51 L78.82 53.03 L78.74 54.55 L78.58 56.07 L78.33 57.59 L78.01 59.10 L77.60 60.60 L77.12 62.07 L76.55 63.53 L75.91 64.96 L75.19 66.36 L74.39 67.72 L73.52 69.05 L72.58 70.33 L71.57 71.57 L70.49 72.75 L69.34 73.88 L68.13 74.96 L66.87 75.97 L65.54 76.92 L64.16 77.80 L62.74 78.61 L61.26 79.35 L59.75 80.01 L58.20 80.59 L56.61 81.09 L54.99 81.51 L53.35 81.84 L51.68 82.09 L50.00 82.25 L48.31 82.32 L46.60 82.31 L44.90 82.20 L43.20 82.00 L41.50 81.71 L39.82 81.34 L38.15 80.87 L36.50 80.31 L34.88 79.67 L33.29 78.94 L31.74 78.12 L30.22 77.22 L28.75 76.24 L27.33 75.18 L25.96 74.04 L24.65 72.83 L23.40 71.54 L22.21 70.19 L21.09 68.77 L20.05 67.29 L19.08 65.75 L18.19 64.16 L17.39 62.52 L16.67 60.83 L16.03 59.10 L15.49 57.34 L15.04 55.54 L14.68 53.71 L14.42 51.86 L14.25 50.00 L23.75 50.00 L23.90 51.37 L24.13 52.72 L24.42 54.05 L24.78 55.36 L25.21 56.64 L25.70 57.90 L26.26 59.11 L26.87 60.30 L27.55 61.44 L28.28 62.54 L29.06 63.60 L29.90 64.61 L30.78 65.57 L31.71 66.47 L32.68 67.32 L33.68 68.12 L34.73 68.86 L35.80 69.54 L36.91 70.16 L38.04 70.71 L39.20 71.21 L40.37 71.64 L41.55 72.00 L42.75 72.30 L43.96 72.54 L45.17 72.71 L46.39 72.82 L47.60 72.86 L48.80 72.84 L50.00 72.75 L51.18 72.60 L52.35 72.39 L53.50 72.12 L54.63 71.80 L55.74 71.41 L56.81 70.97 L57.86 70.48 L58.87 69.93 L59.85 69.33 L60.79 68.69 L61.69 68.00 L62.55 67.27 L63.36 66.50 L64.13 65.69 L64.85 64.85 L65.52 63.97 L66.14 63.07 L66.71 62.14 L67.22 61.18 L67.68 60.21 L68.09 59.22 L68.44 58.21 L68.73 57.19 L68.97 56.16 L69.16 55.13 L69.29 54.10 L69.36 53.07 L69.38 52.04 L69.34 51.01 L69.25 50.00 L69.11 49.00 L68.91 48.01 L68.67 47.04 L68.37 46.09 L68.03 45.17 L67.64 44.27 L67.21 43.39 L66.73 42.55 L66.22 41.74 L65.66 40.96 L65.07 40.21 L64.44 39.51 L63.78 38.84 L63.09 38.21 L62.37 37.63 L61.63 37.08 L60.87 36.58 L60.08 36.13 L59.28 35.71 L58.46 35.35 L57.63 35.03 L56.79 34.76 L55.94 34.53 L55.08 34.36 L54.23 34.22 L53.37 34.14 L52.52 34.10 L51.67 34.10 L50.83 34.16 L50.00 34.25 L49.18 34.39 L48.38 34.57 L47.59 34.79 L46.82 35.05 L46.07 35.35 L45.35 35.69 L44.65 36.06 L43.97 36.46 L43.33 36.90 L42.71 37.37 L42.12 37.87 L41.57 38.39 L41.04 38.94 L40.55 39.51 L40.10 40.10 L39.68 40.71 L39.30 41.34 L38.96 41.98 L38.65 42.63 L38.38 43.29 L38.15 43.96 L37.96 44.64 L37.80 45.32 L37.68 46.00 L37.60 46.68 L37.56 47.36 L37.56 48.03 L37.59 48.70 L37.65 49.35 L37.75 50.00 L37.88 50.64 L38.05 51.26 L38.25 51.86 L38.47 52.45 L38.73 53.02 L39.02 53.57 L39.33 54.10 L39.66 54.60 L40.02 55.08 L40.40 55.54 L40.80 55.97 L41.22 56.38 L41.66 56.75 L42.11 57.10 L42.58 57.42 L43.05 57.72 L43.54 57.98 L44.03 58.21 L44.54 58.41 L45.04 58.59 L45.55 58.73 L46.06 58.85 L46.57 58.93 L47.08 58.99 L47.58 59.02 L48.08 59.02 L48.58 58.99 L49.06 58.93 L49.54 58.85 L50.00 58.75 L50.45 58.62 L50.89 58.47 L51.31 58.30 L51.72 58.10 L52.11 57.89 L52.49 57.66 L52.84 57.41 L53.18 57.14 L53.50 56.86 L53.79 56.57 L54.07 56.26 L54.32 55.95 L54.55 55.62 L54.76 55.29 L54.95 54.95 L55.12 54.61 L55.26 54.26 L55.38 53.91 L55.48 53.56 L55.56 53.21 L55.61 52.86 L55.65 52.51 L55.66 52.17 L55.66 51.84 L55.63 51.51 L55.59 51.19 L55.53 50.88 L55.45 50.57 L55.36 50.28 L55.25 50.00 Z "/></svg>